<svg width="46" height="53" viewBox="0 0 46 53" fill="none" xmlns="http://www.w3.org/2000/svg">
<path d="M23 29.1499C31.7199 29.1499 38.8125 22.6097 38.8125 14.575C38.8125 6.54018 31.7199 0 23 0C14.2801 0 7.1875 6.54018 7.1875 14.575C7.1875 22.6097 14.2801 29.1499 23 29.1499ZM23 5.29999C28.5488 5.29999 33.0625 9.46047 33.0625 14.575C33.0625 19.6894 28.5488 23.8499 23 23.8499C17.4513 23.8499 12.9375 19.6894 12.9375 14.575C12.9375 9.46047 17.4513 5.29999 23 5.29999ZM46 42.3125V44.9917C46 47.631 44.9534 50.1617 43.0531 52.1174C42.4838 52.703 41.699 52.9999 40.9084 52.9999C40.227 52.9999 39.5399 52.7772 38.9908 52.3241C37.8063 51.3489 37.7085 49.6715 38.7665 48.5823C39.721 47.5992 40.2472 46.322 40.2472 44.9917V42.3125C40.2472 38.6052 37.5819 35.3987 33.7697 34.5162C33.2177 34.389 32.6284 34.4525 32.1569 34.7016C26.4615 37.6219 19.5097 37.6059 13.8689 34.7174C13.3716 34.4551 12.7851 34.389 12.2331 34.5162C8.41226 35.3987 5.75 38.6052 5.75 42.3125V44.9917C5.75 46.3246 6.27617 47.5992 7.23067 48.5823C8.28867 49.6715 8.18803 51.3489 7.00641 52.3241C5.82191 53.3019 4.00495 53.2065 2.94695 52.1174C1.04657 50.1617 0 47.631 0 44.9917V42.3125C0 36.1725 4.45346 30.8511 10.8302 29.3751C12.8053 28.9113 14.9443 29.1792 16.6923 30.0987C20.5707 32.0809 25.4034 32.0969 29.3364 30.0829C31.0586 29.1739 33.1976 28.9087 35.1756 29.3725C41.5466 30.8512 46 36.1699 46 42.3125Z" fill="black"/>
</svg>
