<svg width="99" height="26" viewBox="0 0 99 26" fill="none" xmlns="http://www.w3.org/2000/svg">
<path d="M5.44971 25H0.0122071L8.29736 0.999999H14.8364L23.1099 25H17.6724L11.6606 6.48437H11.4731L5.44971 25ZM5.10986 15.5664H17.9536V19.5273H5.10986V15.5664ZM40.7847 8.75781C40.6206 8.1875 40.3901 7.68359 40.0933 7.24609C39.7964 6.80078 39.4331 6.42578 39.0034 6.12109C38.5815 5.80859 38.0972 5.57031 37.5503 5.40625C37.0112 5.24219 36.4136 5.16016 35.7573 5.16016C34.5308 5.16016 33.4526 5.46484 32.5229 6.07422C31.6011 6.68359 30.8823 7.57031 30.3667 8.73437C29.8511 9.89062 29.5933 11.3047 29.5933 12.9766C29.5933 14.6484 29.8472 16.0703 30.355 17.2422C30.8628 18.4141 31.5815 19.3086 32.5112 19.9258C33.4409 20.5352 34.5386 20.8398 35.8042 20.8398C36.9526 20.8398 37.9331 20.6367 38.7456 20.2305C39.5659 19.8164 40.1909 19.2344 40.6206 18.4844C41.0581 17.7344 41.2769 16.8477 41.2769 15.8242L42.3081 15.9766H36.1206V12.1562H46.1636V15.1797C46.1636 17.2891 45.7183 19.1016 44.8276 20.6172C43.937 22.125 42.7104 23.2891 41.1479 24.1094C39.5854 24.9219 37.7964 25.3281 35.7808 25.3281C33.5308 25.3281 31.5542 24.832 29.8511 23.8398C28.1479 22.8398 26.8198 21.4219 25.8667 19.5859C24.9214 17.7422 24.4487 15.5547 24.4487 13.0234C24.4487 11.0781 24.73 9.34375 25.2925 7.82031C25.8628 6.28906 26.6597 4.99219 27.6831 3.92969C28.7065 2.86719 29.8979 2.05859 31.2573 1.50391C32.6167 0.949218 34.0894 0.671874 35.6753 0.671874C37.0347 0.671874 38.3003 0.871093 39.4722 1.26953C40.644 1.66016 41.6831 2.21484 42.5894 2.93359C43.5034 3.65234 44.2495 4.50781 44.8276 5.5C45.4058 6.48437 45.7769 7.57031 45.9409 8.75781H40.7847ZM53.3706 25H47.9331L56.2183 0.999999H62.7573L71.0308 25H65.5933L59.5815 6.48437H59.394L53.3706 25ZM53.0308 15.5664H65.8745V19.5273H53.0308V15.5664ZM70.0728 5.18359V0.999999H89.7837V5.18359H82.436V25H77.4204V5.18359H70.0728Z" fill="white"/>
<path d="M95.854 25.3047C95.0806 25.3047 94.4165 25.0313 93.8618 24.4844C93.3149 23.9297 93.0415 23.2656 93.0415 22.4922C93.0415 21.7266 93.3149 21.0703 93.8618 20.5234C94.4165 19.9766 95.0806 19.7031 95.854 19.7031C96.604 19.7031 97.2603 19.9766 97.8228 20.5234C98.3853 21.0703 98.6665 21.7266 98.6665 22.4922C98.6665 23.0078 98.5337 23.4805 98.2681 23.9102C98.0103 24.332 97.6704 24.6719 97.2485 24.9297C96.8267 25.1797 96.3618 25.3047 95.854 25.3047Z" fill="#D50068"/>
</svg>
