<svg width="46" height="45" viewBox="0 0 46 45" fill="none" xmlns="http://www.w3.org/2000/svg">
<path d="M44.6752 15.0041C41.837 7.0821 34.7945 1.41688 26.2914 0.224429C24.1432 -0.0748097 21.8615 -0.0748097 19.7064 0.224429C11.2079 1.41688 4.16534 7.08225 1.33404 14.9862C0.448539 17.3801 0 19.9089 0 22.5008C0 25.0927 0.448474 27.6195 1.32477 29.9954C4.16297 37.9174 11.2055 43.5826 19.7086 44.7751C20.7827 44.9236 21.8891 45 23 45C24.1109 45 25.2172 44.9258 26.2936 44.7751C34.7921 43.5826 41.8347 37.9172 44.666 30.0133C45.5515 27.6194 46 25.0905 46 22.4986C46 19.9067 45.5515 17.38 44.6752 15.0041ZM41.4 22.4986C41.4 24.0353 41.2022 25.5405 40.8089 27.0007H34.1895C34.3735 25.5067 34.5 24.0061 34.5 22.4986C34.5 20.9912 34.3735 19.4905 34.1895 18.001H40.8112C41.2022 19.4545 41.4 20.9597 41.4 22.4986ZM16.4542 27.0007C16.2449 25.5112 16.1 24.0083 16.1 22.4986C16.1 20.9957 16.2426 19.495 16.4542 18.001H29.5481C29.7574 19.4905 29.9022 20.9912 29.9022 22.4986C29.9022 24.0038 29.7597 25.5045 29.5481 27.0007H16.4542ZM5.18876 27.0007C4.79776 25.545 4.6 24.0376 4.6 22.4986C4.6 20.9642 4.79776 19.459 5.18876 18.001H11.8105C11.6265 19.4927 11.5 20.9935 11.5 22.4986C11.5 24.0083 11.6265 25.5112 11.8105 27.0007H5.18876ZM38.8907 13.5012H33.3454C32.729 10.9565 31.8481 8.50414 30.7073 6.15298C34.1435 7.69642 36.9909 10.2591 38.8907 13.5012ZM24.6147 4.60946C26.4018 7.3836 27.7495 10.3535 28.6235 13.5012H17.3765C18.2482 10.3625 19.5959 7.3881 21.3853 4.60946C21.9235 4.56446 22.4549 4.49932 23 4.49932C23.5474 4.49932 24.0788 4.56446 24.6147 4.60946ZM15.2927 6.15078C14.1496 8.50644 13.2686 10.961 12.6522 13.5012H7.10468C9.00447 10.2613 11.8542 7.69647 15.2927 6.15078ZM7.11155 31.5005H12.6546C13.271 34.0429 14.1519 36.4954 15.2927 38.8443C11.8588 37.3031 9.01365 34.7404 7.11155 31.5005ZM21.3831 40.3878C19.5983 37.6137 18.2505 34.6436 17.3765 31.5005H28.6211C27.7494 34.6391 26.4018 37.6114 24.6147 40.3878C23.5383 40.4756 22.4572 40.4756 21.3831 40.3878ZM30.7096 38.8465C31.8504 36.4931 32.7314 34.0407 33.3478 31.5005H38.8929C36.9931 34.7381 34.1458 37.3008 30.7096 38.8465Z" fill="white"/>
</svg>
