<svg width="46" height="45" viewBox="0 0 46 45" fill="none" xmlns="http://www.w3.org/2000/svg">
<path d="M34.5 0H11.5C5.1589 0 0 5.31237 0 11.8421V42.6316C0 43.5884 0.56121 44.4554 1.41911 44.8202C1.70431 44.9433 2.0033 45 2.3 45C2.898 45 3.4868 44.7585 3.9261 44.3061L9.4783 38.5886C9.913 38.1433 10.4903 37.8947 11.1067 37.8947H34.5C40.8411 37.8947 46 32.5824 46 26.0526V11.8421C46 5.31237 40.8411 0 34.5 0ZM41.4 26.0526C41.4 29.97 38.3042 33.1579 34.5 33.1579H11.1067C9.26442 33.1579 7.5302 33.8966 6.2261 35.2395L4.6 36.9141V11.8421C4.6 7.92474 7.6958 4.73684 11.5 4.73684H34.5C38.3042 4.73684 41.4 7.92474 41.4 11.8421V26.0526Z" fill="white"/>
</svg>
