<svg width="24" height="32" viewBox="0 0 24 32" fill="none" xmlns="http://www.w3.org/2000/svg">
<path d="M21.2308 17.009V10.3999H19.3846V17.4473C19.3847 17.728 19.482 17.9973 19.6551 18.1957L22.1538 21.0614V22.7404H1.84615V21.0614L4.34492 18.1957C4.51805 17.9973 4.61533 17.728 4.61539 17.4473V13.2128C4.61281 11.7252 4.95259 10.2632 5.60039 8.97439C6.24819 7.68559 7.18108 6.61568 8.30483 5.87271C9.42858 5.12973 10.7034 4.74001 12.0005 4.74291C13.2976 4.74581 14.5711 5.14122 15.6923 5.88921V3.52319C14.8136 3.077 13.8791 2.79261 12.9231 2.68052V0.509277H11.0769V2.67946C8.80114 2.9451 6.69209 4.16907 5.15757 6.11468C3.62306 8.06029 2.77209 10.5893 2.76923 13.2128V17.009L0.270462 19.8747C0.097339 20.0732 5.22807e-05 20.3424 0 20.6232V23.799C0 24.0798 0.0972524 24.3491 0.270363 24.5476C0.443473 24.7461 0.678262 24.8577 0.923077 24.8577H7.38462V25.9163C7.38462 27.3201 7.87088 28.6665 8.73643 29.6591C9.60198 30.6518 10.7759 31.2094 12 31.2094C13.2241 31.2094 14.398 30.6518 15.2636 29.6591C16.1291 28.6665 16.6154 27.3201 16.6154 25.9163V24.8577H23.0769C23.3217 24.8577 23.5565 24.7461 23.7296 24.5476C23.9028 24.3491 24 24.0798 24 23.799V20.6232C23.9999 20.3424 23.9027 20.0732 23.7295 19.8747L21.2308 17.009ZM14.7692 25.9163C14.7692 26.7586 14.4775 27.5664 13.9581 28.162C13.4388 28.7576 12.7344 29.0922 12 29.0922C11.2656 29.0922 10.5612 28.7576 10.0419 28.162C9.52253 27.5664 9.23077 26.7586 9.23077 25.9163V24.8577H14.7692V25.9163Z" fill="white"/>
<path d="M17.6675 13.4451C20.705 13.4451 23.1675 10.9826 23.1675 7.94507C23.1675 4.9075 20.705 2.44507 17.6675 2.44507C14.6299 2.44507 12.1675 4.9075 12.1675 7.94507C12.1675 10.9826 14.6299 13.4451 17.6675 13.4451Z" fill="#F02626"/>
</svg>
