<svg width="21" height="20" viewBox="0 0 21 20" fill="none" xmlns="http://www.w3.org/2000/svg">
<path d="M19.9898 3.66912L16.6787 16.7892C16.2043 18.6592 14.5891 19.4992 13.1759 19.4992C13.1658 19.4992 13.1557 19.4992 13.1557 19.4992C11.7324 19.4892 10.1071 18.6292 9.66296 16.7392L8.79483 13.0893L14.2258 7.70916C14.6194 7.31916 14.6194 6.67924 14.2258 6.28924C13.8321 5.89924 13.186 5.89924 12.7923 6.28924L7.36135 11.6691L3.67684 10.8093C1.76896 10.3693 0.900809 8.75931 0.890714 7.35931C0.880619 5.94931 1.72859 4.32931 3.62638 3.85931L16.8705 0.579279C17.7488 0.359279 18.6674 0.609201 19.3134 1.2492C19.9595 1.8892 20.2118 2.79912 19.9898 3.66912Z" fill="black"/>
</svg>
