<svg width="45" height="39" viewBox="0 0 45 39" fill="none" xmlns="http://www.w3.org/2000/svg">
<path d="M33.6466 31.7317V32.8278C33.6466 34.8537 32.8723 36.793 31.4669 38.2892C31.0237 38.7605 30.4172 38.9984 29.8085 38.9984C29.2714 38.9984 28.7343 38.8124 28.3069 38.4362C27.3916 37.6341 27.3221 36.2677 28.1524 35.3834C28.8104 34.685 29.1729 33.7748 29.1729 32.8257V31.7293C29.1729 29.0397 27.2999 26.7113 24.6166 26.0692C24.2473 25.9784 23.86 26.0259 23.5489 26.1967C19.3931 28.402 14.3152 28.3912 10.1952 26.2075C9.86618 26.0259 9.47675 25.9784 9.11197 26.0713C6.42867 26.7135 4.55548 29.0421 4.55548 31.7317V32.8278C4.55548 33.7748 4.91802 34.6828 5.57597 35.3855C6.40625 36.2698 6.33694 37.6383 5.42162 38.4404C4.50183 39.2404 3.08963 39.1756 2.25935 38.2913C0.853917 36.793 0.0795898 34.8536 0.0795898 32.8299V31.7338C0.0795898 27.0529 3.34927 22.9989 8.03329 21.8747C9.49467 21.5287 11.0746 21.7279 12.3704 22.4284C15.1365 23.8986 18.574 23.9094 21.3782 22.4176C22.6561 21.73 24.236 21.5266 25.6974 21.8747C30.377 22.9968 33.6466 27.0508 33.6466 31.7317ZM36.8826 21.8725C35.6853 21.5915 34.4679 22.2898 34.1725 23.4487C33.8771 24.6076 34.6067 25.7817 35.8063 26.0692C38.4896 26.7113 40.3626 29.0397 40.3626 31.7293V32.8257C40.3626 33.7727 40.0001 34.6829 39.3421 35.3834C38.5119 36.2677 38.5813 37.6341 39.4966 38.4362C39.9241 38.8124 40.4633 38.9984 40.9982 38.9984C41.6069 38.9984 42.2135 38.7605 42.6566 38.2892C44.062 36.793 44.8363 34.8515 44.8363 32.8278V31.7317C44.8363 27.0508 41.5667 22.9968 36.8826 21.8725ZM5.67227 10.8914C5.67227 4.93061 10.692 0.0810814 16.862 0.0810814C23.032 0.0810814 28.0517 4.93061 28.0517 10.8914C28.0517 16.8523 23.032 21.7018 16.862 21.7018C10.692 21.7018 5.67227 16.8523 5.67227 10.8914ZM10.1482 10.8914C10.1482 14.4675 13.1604 17.3776 16.862 17.3776C20.5636 17.3776 23.5758 14.4675 23.5758 10.8914C23.5758 7.31537 20.5636 4.40522 16.862 4.40522C13.1604 4.40522 10.1482 7.31537 10.1482 10.8914ZM39.2415 10.8914C39.2415 5.44734 35.032 0.839839 29.4483 0.165273C28.2196 0.0290629 27.1028 0.857227 26.9507 2.04204C26.7985 3.22686 27.6668 4.30782 28.8955 4.45484C32.2434 4.85915 34.7678 7.62455 34.7678 10.8914C34.7678 12.8697 33.8502 14.7162 32.2501 15.9551C31.2855 16.7032 31.1312 18.0629 31.9033 18.9926C32.3441 19.5266 32.9954 19.8034 33.6511 19.8034C34.1412 19.8034 34.6358 19.6478 35.0498 19.3278C37.713 17.2652 39.2415 14.1886 39.2415 10.8914Z" fill="white"/>
</svg>
